<?xml version="1.0" standalone="no"?>
<!DOCTYPE svg PUBLIC "-//W3C//DTD SVG 20010904//EN"
 "http://www.w3.org/TR/2001/REC-SVG-20010904/DTD/svg10.dtd">
<svg version="1.0" xmlns="http://www.w3.org/2000/svg"
 width="414.000000pt" height="253.000000pt" viewBox="0 0 414.000000 253.000000"
 preserveAspectRatio="xMidYMid meet">

<g transform="translate(0.000000,253.000000) scale(0.100000,-0.100000)"
fill="white" stroke="none">
<path d="M1311 2231 l-44 -6 -31 -82 c-17 -45 -34 -84 -37 -87 -3 -4 -9 28
-12 70 -3 42 -8 79 -12 82 -15 16 -91 -25 -122 -66 -47 -63 -165 -435 -150
-475 3 -8 22 -27 42 -43 l36 -27 37 22 c20 12 51 29 69 38 l32 16 67 -53 c65
-51 97 -65 119 -51 6 3 12 6 15 7 3 0 13 4 23 7 9 4 25 10 35 14 9 3 19 7 22
8 3 1 22 9 42 18 46 21 72 21 106 3 34 -19 80 -37 159 -66 61 -22 61 -22 50
-48 -6 -15 -14 -31 -17 -35 -4 -4 -60 13 -124 39 -64 25 -124 44 -134 41 -9
-3 -65 -23 -124 -45 l-108 -40 -70 55 c-69 54 -69 54 -100 38 -16 -8 -30 -19
-30 -23 0 -4 55 -57 123 -118 l123 -111 29 14 c27 15 32 13 105 -22 l76 -37
71 30 71 29 50 -51 51 -51 -24 -30 -24 -30 -39 38 -38 37 -59 -29 -60 -30 -54
30 c-29 17 -55 28 -58 25 -3 -3 10 -23 30 -45 29 -33 39 -55 57 -137 12 -55
30 -127 40 -161 10 -35 14 -63 10 -63 -5 0 -11 4 -14 9 -3 4 -57 6 -121 3
l-115 -5 -89 41 -89 42 -88 -30 c-103 -35 -100 -35 -107 -13 -2 10 -8 26 -12
35 -5 13 2 19 37 28 23 6 57 17 73 25 84 37 102 37 189 -5 45 -21 88 -39 96
-40 34 -5 90 1 90 9 0 5 -64 56 -142 113 l-143 103 -95 0 c-52 0 -112 7 -133
14 -21 7 -40 11 -42 9 -2 -2 -7 -48 -10 -103 -4 -55 -10 -149 -14 -210 -4 -60
-7 -151 -6 -201 1 -79 4 -98 30 -149 39 -77 63 -93 150 -101 39 -3 74 -7 79
-8 5 0 22 37 37 84 l27 85 44 -90 43 -90 70 -8 c60 -7 392 -2 465 7 24 3 129
19 140 21 22 4 87 29 94 35 5 5 -14 20 -41 34 -109 55 -143 102 -143 198 0
135 49 741 76 938 41 308 72 407 157 512 26 32 47 60 47 62 0 7 -43 15 -116
21 l-71 7 -43 -51 c-24 -28 -45 -49 -47 -47 -2 2 -6 25 -9 52 -2 26 -7 50 -10
53 -17 17 -361 26 -463 12z m268 -371 l72 -31 58 21 c74 26 76 26 88 -13 l10
-34 -82 -26 -81 -27 -78 31 -77 32 -61 -17 c-33 -9 -62 -15 -63 -14 -2 2 -6
17 -10 35 -6 32 -6 32 57 52 84 26 85 26 167 -9z"/>
<path d="M2126 2121 l-29 -30 37 -42 c79 -93 72 -201 -18 -254 -22 -13 -54
-27 -70 -31 -26 -6 -28 -10 -22 -42 3 -19 9 -39 13 -43 11 -11 111 31 156 65
53 41 87 115 82 181 -5 71 -37 144 -84 189 l-37 36 -28 -29z"/>
<path d="M214 2080 c6 -60 22 -124 41 -165 7 -16 20 -47 29 -67 8 -21 19 -38
23 -38 5 0 32 16 61 35 49 32 53 33 47 12 -4 -12 -20 -46 -37 -75 l-29 -54 26
-43 c14 -24 29 -46 34 -49 10 -7 95 56 111 82 9 14 10 13 6 -10 -7 -30 -40
-105 -58 -129 -10 -14 -4 -25 31 -68 24 -29 49 -50 55 -48 6 2 25 24 41 49 60
91 56 90 51 8 -2 -41 -10 -88 -17 -104 -14 -31 -11 -35 73 -97 l28 -20 12 28
c6 15 16 60 23 98 l12 70 12 -40 c6 -22 14 -75 18 -119 6 -78 6 -78 42 -94 54
-23 136 -32 202 -21 39 6 64 6 72 -1 78 -64 278 -203 283 -197 3 3 2 22 -2 43
-5 31 -22 54 -78 109 -117 116 -316 298 -413 378 -23 19 -48 41 -56 48 -19 18
-81 71 -189 160 -49 39 -88 76 -88 80 0 5 -5 9 -11 9 -6 0 -23 11 -37 24 -15
14 -57 48 -93 78 -37 29 -101 81 -143 116 -42 34 -78 62 -82 62 -3 0 -3 -23 0
-50z"/>
<path d="M2503 1570 c-3 -11 -9 -20 -14 -20 -5 0 -9 -7 -9 -15 0 -22 -43 -28
-151 -22 l-99 6 0 -37 c0 -26 7 -43 23 -57 19 -18 35 -20 127 -18 l105 2 -3
-49 c-3 -33 0 -50 7 -50 8 0 11 -32 9 -107 l-3 -107 -36 -11 c-57 -16 -83 -37
-75 -62 7 -23 46 -34 87 -26 l26 5 7 -237 c3 -130 11 -244 16 -253 4 -9 11
-25 14 -34 8 -26 52 -23 70 4 18 26 23 173 6 183 -6 4 -10 80 -10 195 l0 188
65 7 c36 4 65 11 65 15 0 4 32 11 70 15 39 4 70 11 70 15 0 5 38 11 85 15 47
4 82 11 79 16 -3 5 2 9 10 9 12 0 16 11 16 46 l0 46 -67 -8 c-38 -3 -70 -10
-73 -14 -3 -5 -38 -12 -78 -15 -39 -4 -72 -12 -72 -16 0 -5 -13 -9 -28 -9 -15
0 -32 -4 -37 -9 -6 -5 -33 -12 -62 -16 l-52 -7 -3 150 -3 150 30 7 c17 4 53 9
80 12 28 3 56 10 63 15 7 6 74 12 153 13 157 2 163 5 157 68 -3 30 -5 32 -48
36 -59 4 -344 -19 -350 -29 -3 -4 -25 -9 -50 -11 -40 -4 -45 -2 -48 19 -5 30
-61 32 -69 2z"/>
<path d="M3241 894 c-32 -40 -69 -126 -86 -196 -39 -166 6 -245 136 -236 79 6
143 46 187 118 29 48 33 62 29 108 -3 48 -8 58 -55 105 -29 29 -52 58 -52 65
0 15 -34 16 -61 2 -31 -17 -22 -37 36 -81 31 -23 60 -50 65 -60 28 -52 -7
-137 -73 -178 -47 -29 -119 -29 -148 0 -44 44 -6 199 77 316 18 26 31 50 28
55 -12 19 -63 8 -83 -18z"/>
<path d="M1922 798 l3 -43 59 -5 c61 -6 86 -24 86 -63 0 -32 -31 -86 -67 -116
l-34 -28 23 -15 c48 -31 64 -31 93 4 31 37 75 124 75 150 0 38 -40 107 -77
132 -31 21 -49 26 -101 26 l-63 0 3 -42z"/>
<path d="M3570 562 c0 -39 26 -72 57 -72 22 0 24 3 19 26 -17 66 -76 102 -76
46z"/>
</g>
</svg>
